<svg id="icons" enable-background="new 0 0 64 64" height="512" viewBox="0 0 64 64" width="512" xmlns="http://www.w3.org/2000/svg"><g><g><path d="m54 28v13c0 12.15-9.85 22-22 22-12.149 0-22-9.85-22-22v-23.01c0-1.65 1.34-3 3-3v.01c7.74 0 14-6.26 14-14 14.92 0 27 12.08 27 27zm-4 13c0-9.939-8.06-18-18-18s-18 8.061-18 18c0 9.941 8.06 18 18 18s18-8.059 18-18z" fill="#fc6e51"/></g><g><circle cx="32" cy="41" fill="#ffce54" r="18"/></g><g><path d="m32 23c-.677 0-1.343.045-2.001.117 8.996.997 15.997 8.62 15.997 17.883 0 9.264-7.001 16.886-15.997 17.883.658.072 1.324.117 2.001.117 9.94 0 18-8.059 18-18 0-9.939-8.06-18-18-18z" fill="#f6bb42"/></g><g><g><path d="m20.998 46c-.553 0-1-.447-1-1v-6c0-.553.447-1 1-1s1 .447 1 1v6c0 .553-.447 1-1 1z" fill="#edab37"/></g><g><path d="m20.998 43c-.256 0-.512-.098-.707-.293-.391-.391-.391-1.023 0-1.414l3-3c.391-.391 1.023-.391 1.414 0s.391 1.023 0 1.414l-3 3c-.195.195-.451.293-.707.293z" fill="#edab37"/></g><g><path d="m23.998 46c-.256 0-.512-.098-.707-.293l-3-3c-.391-.391-.391-1.023 0-1.414s1.023-.391 1.414 0l3 3c.391.391.391 1.023 0 1.414-.195.195-.451.293-.707.293z" fill="#edab37"/></g><g><path d="m26.998 42c-.553 0-1-.447-1-1 0-1.654 1.346-3 3-3 1.072 0 2.069.577 2.603 1.507.275.479.109 1.091-.369 1.365-.48.273-1.091.11-1.365-.369-.179-.311-.512-.503-.869-.503-.552 0-1 .448-1 1 0 .553-.447 1-1 1z" fill="#edab37"/></g><g><path d="m28.998 46c-1.654 0-3-1.346-3-3 0-.553.447-1 1-1s1 .447 1 1c0 .552.448 1 1 1 .355 0 .688-.191.867-.5.278-.479.892-.64 1.366-.362.478.277.641.889.362 1.366-.534.923-1.53 1.496-2.595 1.496z" fill="#edab37"/></g><g><path d="m26.998 44c-.553 0-1-.447-1-1v-2c0-.553.447-1 1-1s1 .447 1 1v2c0 .553-.447 1-1 1z" fill="#edab37"/></g><g><path d="m33.5 46.001c-.128 0-.257-.024-.382-.075-.51-.211-.753-.796-.543-1.307l2.477-6.001c.211-.512.798-.748 1.307-.543.51.211.753.796.543 1.307l-2.477 6.001c-.159.386-.532.618-.925.618z" fill="#edab37"/></g><g><path d="m38.501 46c-.39 0-.761-.229-.922-.612l-2.524-6c-.214-.509.025-1.096.534-1.31.509-.211 1.095.023 1.31.534l2.524 6c.214.509-.025 1.096-.534 1.31-.127.053-.258.078-.388.078z" fill="#edab37"/></g><g><path d="m37.659 44.001h-3.333c-.553 0-1-.447-1-1s.447-1 1-1h3.333c.553 0 1 .447 1 1s-.447 1-1 1z" fill="#edab37"/></g><g><path d="m41.501 45.998c-.553 0-1-.447-1-1v-6c0-.553.447-1 1-1s1 .447 1 1v6c0 .553-.447 1-1 1z" fill="#edab37"/></g><g><path d="m44.501 45.998h-3c-.553 0-1-.447-1-1s.447-1 1-1h3c.553 0 1 .447 1 1s-.447 1-1 1z" fill="#edab37"/></g></g></g></svg>